<svg width="100" height="100" viewBox="0 0 100 100" fill="none" xmlns="http://www.w3.org/2000/svg">
<path d="M56.8181 8.18171C56.8181 7.17755 57.6322 6.36353 58.6363 6.36353H68.6363C69.6405 6.36353 70.4545 7.17755 70.4545 8.18171V18.1817C70.4545 19.1859 71.2685 19.9999 72.2727 19.9999H82.2727C83.2768 19.9999 84.0909 20.8139 84.0909 21.8181V31.8181C84.0909 32.8222 83.2768 33.6363 82.2727 33.6363H72.2727C71.2685 33.6363 70.4545 34.4503 70.4545 35.4544V45.4544C70.4545 46.4586 69.6405 47.2726 68.6363 47.2726H58.6363C57.6322 47.2726 56.8181 46.4586 56.8181 45.4544V35.4544C56.8181 34.4503 56.0041 33.6363 54.9999 33.6363H44.9999C43.9958 33.6363 43.1818 32.8222 43.1818 31.8181V21.8181C43.1818 20.8139 43.9958 19.9999 44.9999 19.9999H54.9999C56.0041 19.9999 56.8181 19.1859 56.8181 18.1817V8.18171Z" fill="white"/>
<path d="M15.9091 47.2727C15.9091 34.5039 24.6841 23.7846 36.5328 20.8163C37.6234 20.543 38.6363 21.4014 38.6363 22.5257V33.316C38.6363 34.0836 38.1486 34.7576 37.4541 35.0845C32.8825 37.2366 29.718 41.8851 29.718 47.2727C29.718 54.7085 35.746 60.7365 43.1818 60.7365C48.5694 60.7365 53.2179 57.572 55.37 53.0004C55.6969 52.306 56.371 51.8182 57.1385 51.8182H67.9288C69.0531 51.8182 69.9115 52.8311 69.6383 53.9217C66.6699 65.7704 55.9506 74.5455 43.1818 74.5455C38.2142 74.5455 33.5569 73.2174 29.5454 70.8968V92.0455C29.5454 93.0496 28.7314 93.8636 27.7272 93.8636H17.7272C16.7231 93.8636 15.9091 93.0496 15.9091 92.0455V48.4091H15.9323C15.9169 48.0322 15.9091 47.6534 15.9091 47.2727Z" fill="white"/>
</svg>
